<?xml version="1.0" encoding="UTF-8"?>
<svg xmlns="http://www.w3.org/2000/svg" viewBox="0 0 800 600">
    <!-- Background -->
    <rect width="800" height="600" fill="#f5f5f5"/>
    <text x="400" y="40" font-family="Arial" font-size="24" font-weight="bold" text-anchor="middle">Microservices Architecture Diagram</text>
    <text x="400" y="40" font-family="Arial" font-size="24" font-weight="bold" text-anchor="middle">Microservices Architecture</text>
    
    <!-- Kubernetes Cluster -->
    <rect x="50" y="80" width="700" height="450" rx="10" ry="10" fill="#e6f7ff" stroke="#1890ff" stroke-width="2"/>
    <text x="400" y="100" font-family="Arial" font-size="18" font-weight="bold" text-anchor="middle">Kubernetes Cluster (K8s)</text>
    
    <!-- APISIX Gateway -->
    <rect x="80" y="130" width="160" height="60" rx="5" ry="5" fill="#f6ffed" stroke="#52c41a" stroke-width="2"/>
    <text x="160" y="165" font-family="Arial" font-size="14" font-weight="bold" text-anchor="middle">APISIX API Gateway (Nginx)</text>
    
    <!-- OPA -->
    <rect x="320" y="130" width="160" height="60" rx="5" ry="5" fill="#fff2e8" stroke="#fa8c16" stroke-width="2"/>
    <text x="400" y="165" font-family="Arial" font-size="14" font-weight="bold" text-anchor="middle">Open Policy Agent (OPA)</text>
    
    <!-- KEDA -->
    <rect x="560" y="130" width="160" height="60" rx="5" ry="5" fill="#f9f0ff" stroke="#722ed1" stroke-width="2"/>
    <text x="640" y="165" font-family="Arial" font-size="14" font-weight="bold" text-anchor="middle">KEDA Autoscaler (Go)</text>
    
    <!-- Product Service -->
    <rect x="120" y="250" width="180" height="80" rx="5" ry="5" fill="#e6f7ff" stroke="#1890ff" stroke-width="2"/>
    <text x="210" y="285" font-family="Arial" font-size="14" font-weight="bold" text-anchor="middle">Product Service (Java)</text>
    <text x="210" y="305" font-family="Arial" font-size="12" text-anchor="middle">CRUD operations for products</text>
    
    <!-- Order Service -->
    <rect x="500" y="250" width="180" height="80" rx="5" ry="5" fill="#e6f7ff" stroke="#1890ff" stroke-width="2"/>
    <text x="590" y="285" font-family="Arial" font-size="14" font-weight="bold" text-anchor="middle">Order Service (Java)</text>
    <text x="590" y="305" font-family="Arial" font-size="12" text-anchor="middle">Order management</text>
    
    <!-- YugabyteDB -->
    <rect x="300" y="400" width="200" height="80" rx="5" ry="5" fill="#f0f5ff" stroke="#2f54eb" stroke-width="2"/>
    <text x="400" y="435" font-family="Arial" font-size="14" font-weight="bold" text-anchor="middle">YugabyteDB</text>
    <text x="400" y="455" font-family="Arial" font-size="12" text-anchor="middle">Distributed SQL Database</text>
    
    <!-- Connections -->
    <!-- APISIX to Services -->
    <line x1="160" y1="190" x2="210" y2="250" stroke="#52c41a" stroke-width="2"/>
    <line x1="160" y1="190" x2="590" y2="250" stroke="#52c41a" stroke-width="2"/>
    
    <!-- OPA to Services -->
    <line x1="400" y1="190" x2="210" y2="250" stroke="#fa8c16" stroke-width="2" stroke-dasharray="5,5"/>
    <line x1="400" y1="190" x2="590" y2="250" stroke="#fa8c16" stroke-width="2" stroke-dasharray="5,5"/>
    
    <!-- KEDA to Services -->
    <line x1="640" y1="190" x2="210" y2="250" stroke="#722ed1" stroke-width="2" stroke-dasharray="5,5"/>
    <line x1="640" y1="190" x2="590" y2="250" stroke="#722ed1" stroke-width="2" stroke-dasharray="5,5"/>
    
    <!-- Services to YugabyteDB -->
    <line x1="210" y1="330" x2="400" y2="400" stroke="#1890ff" stroke-width="2"/>
    <line x1="590" y1="330" x2="400" y2="400" stroke="#1890ff" stroke-width="2"/>
    
    <!-- Service to Service Communication -->
    <line x1="300" y1="290" x2="500" y2="290" stroke="#1890ff" stroke-width="2"/>
    <polygon points="495,285 505,290 495,295" fill="#1890ff"/>
    
    <!-- Legend -->
    <rect x="80" y="500" width="15" height="15" fill="#f6ffed" stroke="#52c41a" stroke-width="2"/>
    <text x="105" y="513" font-family="Arial" font-size="12" text-anchor="start">API Gateway Flow</text>
    
    <rect x="230" y="500" width="15" height="15" fill="#fff2e8" stroke="#fa8c16" stroke-width="2"/>
    <text x="255" y="513" font-family="Arial" font-size="12" text-anchor="start">Policy Enforcement</text>
    
    <rect x="380" y="500" width="15" height="15" fill="#f9f0ff" stroke="#722ed1" stroke-width="2"/>
    <text x="405" y="513" font-family="Arial" font-size="12" text-anchor="start">Autoscaling</text>
    
    <rect x="530" y="500" width="15" height="15" fill="#e6f7ff" stroke="#1890ff" stroke-width="2"/>
    <text x="555" y="513" font-family="Arial" font-size="12" text-anchor="start">Service Communication</text>
</svg>