<svg xmlns="http://www.w3.org/2000/svg" viewBox="0 0 1200 800">
  
  <rect width="1200" height="800" fill="#f8f9fa"/>
  
  <!-- Title -->
  <text x="600" y="40" font-family="Arial" font-size="24" font-weight="bold" text-anchor="middle" fill="#333">Fintech Microservices Architecture</text>
  
  <!-- Kubernetes Cluster Border -->
  <rect x="50" y="70" width="1100" height="680" rx="10" ry="10" fill="#E7F3FE" stroke="#1565C0" stroke-width="2" stroke-dasharray="5,5"/>
  <text x="130" y="90" font-family="Arial" font-size="16" font-weight="bold" fill="#1565C0">Kubernetes Cluster</text>
  
  <!-- Namespaces -->
  <rect x="70" y="100" width="1060" height="630" rx="8" ry="8" fill="#F0F7FF" stroke="#3F51B5" stroke-width="1" stroke-dasharray="3,3"/>
  <text x="180" y="120" font-family="Arial" font-size="14" font-weight="bold" fill="#3F51B5">fintech-app Namespace</text>
  
  <!-- Client -->
  <rect x="500" y="50" width="200" height="40" rx="20" ry="20" fill="#FFF" stroke="#333" stroke-width="2"/>
  <text x="600" y="75" font-family="Arial" font-size="14" font-weight="bold" text-anchor="middle" fill="#333">Client Applications</text>
  
  <!-- APISIX Gateway -->
  <rect x="100" y="140" width="1000" height="60" rx="5" ry="5" fill="#FFF" stroke="#FF9800" stroke-width="2"/>
  <text x="600" y="175" font-family="Arial" font-size="16" font-weight="bold" text-anchor="middle" fill="#FF9800">APISIX API Gateway</text>
  
  <!-- Core Services Layer -->
  <g transform="translate(0,220)">
    <!-- OPA -->
    <rect x="100" y="0" width="200" height="80" rx="5" ry="5" fill="#FFF" stroke="#9C27B0" stroke-width="2"/>
    <text x="200" y="30" font-family="Arial" font-size="16" font-weight="bold" text-anchor="middle" fill="#9C27B0">Open Policy Agent</text>
    <text x="200" y="55" font-family="Arial" font-size="12" text-anchor="middle" fill="#666">Policy enforcement</text>
    
    <!-- User Service -->
    <rect x="330" y="0" width="200" height="80" rx="5" ry="5" fill="#FFF" stroke="#2196F3" stroke-width="2"/>
    <text x="430" y="30" font-family="Arial" font-size="16" font-weight="bold" text-anchor="middle" fill="#2196F3">User Service</text>
    <text x="430" y="55" font-family="Arial" font-size="12" text-anchor="middle" fill="#666">Account management</text>
    
    <!-- Transaction Service -->
    <rect x="560" y="0" width="200" height="80" rx="5" ry="5" fill="#FFF" stroke="#2196F3" stroke-width="2"/>
    <text x="660" y="30" font-family="Arial" font-size="16" font-weight="bold" text-anchor="middle" fill="#2196F3">Transaction Service</text>
    <text x="660" y="55" font-family="Arial" font-size="12" text-anchor="middle" fill="#666">Financial transactions</text>
    
    <!-- Redis -->
    <rect x="790" y="0" width="200" height="80" rx="5" ry="5" fill="#FFF" stroke="#DC3545" stroke-width="2"/>
    <text x="890" y="30" font-family="Arial" font-size="16" font-weight="bold" text-anchor="middle" fill="#DC3545">Redis</text>
    <text x="890" y="55" font-family="Arial" font-size="12" text-anchor="middle" fill="#666">Message queue</text>
  </g>
  
  <!-- Processing Layer -->
  <g transform="translate(0,320)">
    <!-- KEDA -->
    <rect x="100" y="0" width="200" height="80" rx="5" ry="5" fill="#FFF" stroke="#F44336" stroke-width="2"/>
    <text x="200" y="30" font-family="Arial" font-size="16" font-weight="bold" text-anchor="middle" fill="#F44336">KEDA</text>
    <text x="200" y="55" font-family="Arial" font-size="12" text-anchor="middle" fill="#666">Autoscaling</text>
    
    <!-- Transaction Worker -->
    <rect x="790" y="0" width="200" height="80" rx="5" ry="5" fill="#FFF" stroke="#28A745" stroke-width="2"/>
    <text x="890" y="30" font-family="Arial" font-size="16" font-weight="bold" text-anchor="middle" fill="#28A745">Transaction Worker</text>
    <text x="890" y="55" font-family="Arial" font-size="12" text-anchor="middle" fill="#666">Async processing</text>
  </g>
  
  <!-- Data Layer -->
  <g transform="translate(0,420)">
    <!-- YugabyteDB -->
    <rect x="330" y="0" width="430" height="80" rx="5" ry="5" fill="#FFF" stroke="#4CAF50" stroke-width="2"/>
    <text x="545" y="30" font-family="Arial" font-size="16" font-weight="bold" text-anchor="middle" fill="#4CAF50">YugabyteDB (StatefulSet)</text>
    <text x="545" y="55" font-family="Arial" font-size="12" text-anchor="middle" fill="#666">Distributed SQL database</text>
  </g>
  
  <!-- Observability Layer -->
  <g transform="translate(0,520)">
    <rect x="100" y="0" width="890" height="160" rx="5" ry="5" fill="#FFF" stroke="#673AB7" stroke-width="2"/>
    <text x="545" y="25" font-family="Arial" font-size="16" font-weight="bold" text-anchor="middle" fill="#673AB7">Observability Stack</text>
    
    <!-- OpenTelemetry -->
    <rect x="120" y="40" width="270" height="60" rx="5" ry="5" fill="#FFF" stroke="#009688" stroke-width="2"/>
    <text x="255" y="70" font-family="Arial" font-size="14" font-weight="bold" text-anchor="middle" fill="#009688">OpenTelemetry Collector</text>
    <text x="255" y="90" font-family="Arial" font-size="12" text-anchor="middle" fill="#666">Telemetry collection</text>
    
    <!-- Jaeger -->
    <rect x="410" y="40" width="270" height="60" rx="5" ry="5" fill="#FFF" stroke="#009688" stroke-width="2"/>
    <text x="545" y="70" font-family="Arial" font-size="14" font-weight="bold" text-anchor="middle" fill="#009688">Jaeger</text>
    <text x="545" y="90" font-family="Arial" font-size="12" text-anchor="middle" fill="#666">Distributed tracing</text>
    
    <!-- Prometheus -->
    <rect x="700" y="40" width="270" height="60" rx="5" ry="5" fill="#FFF" stroke="#009688" stroke-width="2"/>
    <text x="835" y="70" font-family="Arial" font-size="14" font-weight="bold" text-anchor="middle" fill="#009688">Prometheus</text>
    <text x="835" y="90" font-family="Arial" font-size="12" text-anchor="middle" fill="#666">Metrics collection</text>
  </g>

  <!-- Arrowhead marker definitions with different colors -->
  <defs>
    <marker id="arrowBlack" markerWidth="10" markerHeight="7" refX="9" refY="3.5" orient="auto">
      <polygon points="0 0, 10 3.5, 0 7" fill="#333"/>
    </marker>
    <marker id="arrowBlue" markerWidth="10" markerHeight="7" refX="9" refY="3.5" orient="auto">
      <polygon points="0 0, 10 3.5, 0 7" fill="#2196F3"/>
    </marker>
    <marker id="arrowPurple" markerWidth="10" markerHeight="7" refX="9" refY="3.5" orient="auto">
      <polygon points="0 0, 10 3.5, 0 7" fill="#9C27B0"/>
    </marker>
    <marker id="arrowRed" markerWidth="10" markerHeight="7" refX="9" refY="3.5" orient="auto">
      <polygon points="0 0, 10 3.5, 0 7" fill="#DC3545"/>
    </marker>
    <marker id="arrowGreen" markerWidth="10" markerHeight="7" refX="9" refY="3.5" orient="auto">
      <polygon points="0 0, 10 3.5, 0 7" fill="#28A745"/>
    </marker>
    <marker id="arrowOrange" markerWidth="10" markerHeight="7" refX="9" refY="3.5" orient="auto">
      <polygon points="0 0, 10 3.5, 0 7" fill="#FF9800"/>
    </marker>
    <marker id="arrowObservability" markerWidth="10" markerHeight="7" refX="9" refY="3.5" orient="auto">
      <polygon points="0 0, 10 3.5, 0 7" fill="#673AB7"/>
    </marker>
    <marker id="arrowFireRed" markerWidth="10" markerHeight="7" refX="9" refY="3.5" orient="auto">
      <polygon points="0 0, 10 3.5, 0 7" fill="#F44336"/>
    </marker>
  </defs>
  
  <!-- ANIMATIONS FOR TRAFFIC FLOW -->
  
  <style>
    @keyframes flowAnimation {
      0% { stroke-dashoffset: 20; }
      100% { stroke-dashoffset: 0; }
    }
    
    .flow-line {
      animation: flowAnimation 1.5s linear infinite;
    }
    
    .flow-line-slow {
      animation: flowAnimation 3s linear infinite;
    }
    
    .flow-line-fast {
      animation: flowAnimation 1s linear infinite;
    }
  </style>
  
  <!-- PRIMARY REQUEST FLOWS - FIXED TO CONNECT PROPERLY TO BORDERS -->
  
  <!-- Client to Gateway (bidirectional) -->
  <path d="M600,90 L600,140" stroke="#333" stroke-width="1.5" marker-end="url(#arrowBlack)" fill="none" class="flow-line" stroke-dasharray="4, 2"/>
  <path d="M620,140 L620,90" stroke="#333" stroke-width="1.5" marker-end="url(#arrowBlack)" fill="none" stroke-dasharray="4,2" class="flow-line"/>
  
  <!-- Gateway to Services -->
  <path d="M430,200 L430,220" stroke="#FF9800" stroke-width="1.5" marker-end="url(#arrowOrange)" fill="none" class="flow-line" stroke-dasharray="4, 2"/>
  <path d="M445,220 L445,200" stroke="#FF9800" stroke-width="1.5" marker-end="url(#arrowOrange)" fill="none" stroke-dasharray="4,2" class="flow-line"/>
  
  <path d="M660,200 L660,220" stroke="#FF9800" stroke-width="1.5" marker-end="url(#arrowOrange)" fill="none" class="flow-line" stroke-dasharray="4, 2"/>
  <path d="M675,220 L675,200" stroke="#FF9800" stroke-width="1.5" marker-end="url(#arrowOrange)" fill="none" stroke-dasharray="4,2" class="flow-line"/>
  
  <!-- Gateway to OPA - FIXED to connect to borders -->
  <path d="M300,170 L250,180 240,190 200,220" stroke="#9C27B0" stroke-width="1.5" marker-end="url(#arrowPurple)" fill="none" class="flow-line" stroke-dasharray="4, 2"/>
  <path d="M200,245 L240,230 270,200" stroke="#9C27B0" stroke-width="1.5" marker-end="url(#arrowPurple)" fill="none" stroke-dasharray="4,2" class="flow-line"/>
  
  <!-- Services to DB - FIXED to connect to borders exactly -->
  <path d="M430,300 L430,420" stroke="#2196F3" stroke-width="1.5" marker-end="url(#arrowBlue)" fill="none" class="flow-line" stroke-dasharray="4, 2"/>
  <path d="M450,420 L450,300" stroke="#2196F3" stroke-width="1.5" marker-end="url(#arrowBlue)" fill="none" stroke-dasharray="4,2" class="flow-line"/>
  
  <path d="M660,300 L660,420" stroke="#2196F3" stroke-width="1.5" marker-end="url(#arrowBlue)" fill="none" class="flow-line" stroke-dasharray="4, 2"/>
  <path d="M680,420 L680,300" stroke="#2196F3" stroke-width="1.5" marker-end="url(#arrowBlue)" fill="none" stroke-dasharray="4,2" class="flow-line"/>
  
  <!-- Transaction Service to Redis - FIXED to connect to borders -->
  <path d="M760,250 L790,250" stroke="#DC3545" stroke-width="1.5" marker-end="url(#arrowRed)" fill="none" class="flow-line-fast" stroke-dasharray="4, 2"/>
  
  <!-- Redis to Worker - FIXED to connect to borders -->
  <path d="M890,300 L890,320" stroke="#28A745" stroke-width="1.5" marker-end="url(#arrowGreen)" fill="none" class="flow-line" stroke-dasharray="4, 2"/>
  
  <!-- Worker to DB - FIXED to connect to borders -->
  <path d="M890,400 C790,440 700,465 600,465" stroke="#28A745" stroke-width="1.5" marker-end="url(#arrowGreen)" fill="none" class="flow-line-slow" stroke-dasharray="4, 2"/>
  
  <!-- SECONDARY FLOWS - FIXED to connect to borders -->
  
  <!-- Services to OPA (authorization) -->
  <path d="M330,270 L295,270 260,270 220,270" stroke="#9C27B0" stroke-width="1.5" marker-end="url(#arrowPurple)" fill="none" stroke-dasharray="3,1" class="flow-line"/>
  <path d="M220,245 L285,230 320,230 330,245" stroke="#9C27B0" stroke-width="1.5" marker-end="url(#arrowPurple)" fill="none" stroke-dasharray="5,2" class="flow-line"/>

  <!-- KEDA to Redis (monitoring) - FIXED to connect to borders -->
  <path d="M300,360 C500,330 700,280 790,280" stroke="#F44336" stroke-width="1.5" marker-end="url(#arrowFireRed)" fill="none" stroke-dasharray="3,3" class="flow-line-slow"/>
  
  <!-- KEDA to Worker (scaling) - FIXED to connect to borders -->
  <path d="M300,360 L500,375 700,380 790,360" stroke="#F44336" stroke-width="1.5" marker-end="url(#arrowFireRed)" fill="none" stroke-dasharray="3,3"  class="flow-line-slow"/>
  
  <!-- Worker to Transaction Service (callbacks) - FIXED to connect to borders -->
  <path d="M790,360 L740,330 720,320 710,300" stroke="#28A745" stroke-width="1.5" marker-end="url(#arrowGreen)" fill="none" stroke-dasharray="4,3" class="flow-line"/>
  
  <!-- OBSERVABILITY FLOWS - FIXED to connect to borders -->
  
  <!-- Components to OpenTelemetry (single line per component type) -->
  <path d="M600,200 C500,350 400,450 255,560" stroke="#673AB7" stroke-width="1.5" marker-end="url(#arrowObservability)" fill="none" stroke-dasharray="2,4" opacity="0.3" class="flow-line-slow"/>
  <path d="M200,300 C200,400 200,500 255,560" stroke="#673AB7" stroke-width="1.5" marker-end="url(#arrowObservability)" fill="none" stroke-dasharray="2,4"  class="flow-line-slow"/>
  <path d="M545,500 C500,530 400,550 255,560" stroke="#673AB7" stroke-width="1.5" marker-end="url(#arrowObservability)" fill="none" stroke-dasharray="2,4" opacity="0.3" class="flow-line-slow"/>
  <path d="M890,400 C700,470 400,550 255,560" stroke="#673AB7" stroke-width="1.5" marker-end="url(#arrowObservability)" fill="none" stroke-dasharray="2,4" opacity="0.3" class="flow-line-slow"/>
  
  <!-- Selected components to Prometheus -->
  <path d="M545,500 C600,530 700,550 835,560" stroke="#673AB7" stroke-width="1.5" marker-end="url(#arrowObservability)" fill="none" stroke-dasharray="2,4" class="flow-line-slow"/>
  <path d="M890,400 C880,450 860,550 835,560" stroke="#673AB7" stroke-width="1.5" marker-end="url(#arrowObservability)" fill="none" stroke-dasharray="2,4" opacity="0.3" class="flow-line-slow"/>
  
  <!-- Observability internal connections -->
  <path d="M390,580 L410,580" stroke="#009688" stroke-width="1.5" marker-end="url(#arrowObservability)" fill="none" class="flow-line"/>
  <path d="M680,580 L700,580" stroke="#009688" stroke-width="1.5" marker-end="url(#arrowObservability)" fill="none" class="flow-line"/>
  
  <!-- Legend -->
  <g transform="translate(1020,140)">
    <rect width="130" height="380" rx="5" ry="5" fill="#FFF" stroke="#333" stroke-width="1"/>
    <text x="65" y="30" font-family="Arial" font-size="14" font-weight="bold" text-anchor="middle" fill="#333">Legend</text>
    
    <g transform="translate(20,50)">
      <circle cx="0" cy="0" r="6" fill="#FF9800"/>
      <text x="15" y="5" font-family="Arial" font-size="12" fill="#333">API Gateway</text>
      
      <circle cx="0" cy="30" r="6" fill="#9C27B0"/>
      <text x="15" y="35" font-family="Arial" font-size="12" fill="#333">Security</text>
      
      <circle cx="0" cy="60" r="6" fill="#2196F3"/>
      <text x="15" y="65" font-family="Arial" font-size="12" fill="#333">Services</text>
      
      <circle cx="0" cy="90" r="6" fill="#4CAF50"/>
      <text x="15" y="95" font-family="Arial" font-size="12" fill="#333">Storage</text>
      
      <circle cx="0" cy="120" r="6" fill="#F44336"/>
      <text x="15" y="125" font-family="Arial" font-size="12" fill="#333">Scaling</text>
      
      <circle cx="0" cy="150" r="6" fill="#673AB7"/>
      <text x="15" y="155" font-family="Arial" font-size="12" fill="#333">Observability</text>
      
      <circle cx="0" cy="180" r="6" fill="#DC3545"/>
      <text x="15" y="185" font-family="Arial" font-size="12" fill="#333">Queue</text>
      
      <circle cx="0" cy="210" r="6" fill="#28A745"/>
      <text x="15" y="215" font-family="Arial" font-size="12" fill="#333">Workers</text>
      
      <line x1="0" y1="240" x2="30" y2="240" stroke="#333" stroke-width="1.5" class="flow-line" stroke-dasharray="4, 2"/>
      <text x="45" y="245" font-family="Arial" font-size="12" fill="#333">Request Flow</text>
      
      <line x1="0" y1="270" x2="30" y2="270" stroke="#333" stroke-width="1.5" stroke-dasharray="4,2" class="flow-line"/>
      <text x="45" y="275" font-family="Arial" font-size="12" fill="#333">Response Flow</text>
      
      <line x1="0" y1="300" x2="30" y2="300" stroke="#333" stroke-width="1.5" stroke-dasharray="3,3" class="flow-line-slow"/>
      <text x="45" y="305" font-family="Arial" font-size="12" fill="#333">Monitoring</text>
      
      <line x1="0" y1="330" x2="30" y2="330" stroke="#673AB7" stroke-width="1.5" stroke-dasharray="2,4" opacity="0.3" class="flow-line-slow"/>
      <text x="45" y="335" font-family="Arial" font-size="12" fill="#333">Telemetry</text>
    </g>
  </g>
</svg>