<?xml version="1.0" encoding="UTF-8"?>
<svg xmlns="http://www.w3.org/2000/svg" viewBox="0 0 1200 800">
  
  <rect width="1200" height="800" fill="#f5f5f5"/>
  
  <!-- Title -->
  <text x="600" y="40" font-family="Arial" font-size="24" font-weight="bold" text-anchor="middle" fill="#333">Fintech Microservices Architecture</text>
  
  <!-- Kubernetes Cluster Border -->
  <rect x="50" y="70" width="1100" height="680" rx="10" ry="10" fill="#E7F3FE" stroke="#1565C0" stroke-width="2" stroke-dasharray="5,5"/>
  <text x="130" y="90" font-family="Arial" font-size="16" font-weight="bold" fill="#1565C0">Kubernetes Cluster</text>
  
  <!-- Namespaces -->
  <rect x="70" y="100" width="1060" height="630" rx="8" ry="8" fill="#F0F7FF" stroke="#3F51B5" stroke-width="1" stroke-dasharray="3,3"/>
  <text x="180" y="120" font-family="Arial" font-size="14" font-weight="bold" fill="#3F51B5">fintech-app Namespace</text>
  
  <!-- Client -->
  <rect x="500" y="50" width="200" height="40" rx="20" ry="20" fill="#FFF" stroke="#333" stroke-width="2"/>
  <text x="600" y="75" font-family="Arial" font-size="14" font-weight="bold" text-anchor="middle" fill="#333">Client Applications</text>
  
  <!-- APISIX Gateway -->
  <rect x="100" y="140" width="1000" height="60" rx="5" ry="5" fill="#FFF" stroke="#FF9800" stroke-width="2"/>
  <text x="600" y="175" font-family="Arial" font-size="16" font-weight="bold" text-anchor="middle" fill="#FF9800">APISIX API Gateway</text>
  
  <!-- Core Services Layer -->
  <g transform="translate(0,220)">
    <!-- OPA -->
    <rect x="100" y="0" width="200" height="80" rx="5" ry="5" fill="#FFF" stroke="#9C27B0" stroke-width="2"/>
    <text x="200" y="30" font-family="Arial" font-size="16" font-weight="bold" text-anchor="middle" fill="#9C27B0">Open Policy Agent</text>
    <text x="200" y="55" font-family="Arial" font-size="12" text-anchor="middle" fill="#666">Policy enforcement</text>
    
    <!-- User Service -->
    <rect x="330" y="0" width="200" height="80" rx="5" ry="5" fill="#FFF" stroke="#2196F3" stroke-width="2"/>
    <text x="430" y="30" font-family="Arial" font-size="16" font-weight="bold" text-anchor="middle" fill="#2196F3">User Service</text>
    <text x="430" y="55" font-family="Arial" font-size="12" text-anchor="middle" fill="#666">Account management</text>
    
    <!-- Transaction Service -->
    <rect x="560" y="0" width="200" height="80" rx="5" ry="5" fill="#FFF" stroke="#2196F3" stroke-width="2"/>
    <text x="660" y="30" font-family="Arial" font-size="16" font-weight="bold" text-anchor="middle" fill="#2196F3">Transaction Service</text>
    <text x="660" y="55" font-family="Arial" font-size="12" text-anchor="middle" fill="#666">Financial transactions</text>
    
    <!-- Redis -->
    <rect x="790" y="0" width="200" height="80" rx="5" ry="5" fill="#FFF" stroke="#DC3545" stroke-width="2"/>
    <text x="890" y="30" font-family="Arial" font-size="16" font-weight="bold" text-anchor="middle" fill="#DC3545">Redis</text>
    <text x="890" y="55" font-family="Arial" font-size="12" text-anchor="middle" fill="#666">Message queue</text>
  </g>
  
  <!-- Processing Layer -->
  <g transform="translate(0,320)">
    <!-- KEDA -->
    <rect x="100" y="0" width="200" height="80" rx="5" ry="5" fill="#FFF" stroke="#F44336" stroke-width="2"/>
    <text x="200" y="30" font-family="Arial" font-size="16" font-weight="bold" text-anchor="middle" fill="#F44336">KEDA</text>
    <text x="200" y="55" font-family="Arial" font-size="12" text-anchor="middle" fill="#666">Autoscaling</text>
    
    <!-- Transaction Worker -->
    <rect x="790" y="0" width="200" height="80" rx="5" ry="5" fill="#FFF" stroke="#28A745" stroke-width="2"/>
    <text x="890" y="30" font-family="Arial" font-size="16" font-weight="bold" text-anchor="middle" fill="#28A745">Transaction Worker</text>
    <text x="890" y="55" font-family="Arial" font-size="12" text-anchor="middle" fill="#666">Async processing</text>
  </g>
  
  <!-- Data Layer -->
  <g transform="translate(0,420)">
    <!-- YugabyteDB -->
    <rect x="330" y="0" width="430" height="80" rx="5" ry="5" fill="#FFF" stroke="#4CAF50" stroke-width="2"/>
    <text x="545" y="30" font-family="Arial" font-size="16" font-weight="bold" text-anchor="middle" fill="#4CAF50">YugabyteDB (StatefulSet)</text>
    <text x="545" y="55" font-family="Arial" font-size="12" text-anchor="middle" fill="#666">Distributed SQL database</text>
  </g>
  
  <!-- Observability Layer -->
  <g transform="translate(0,520)">
    <rect x="100" y="0" width="890" height="160" rx="5" ry="5" fill="#FFF" stroke="#673AB7" stroke-width="2"/>
    <text x="545" y="25" font-family="Arial" font-size="16" font-weight="bold" text-anchor="middle" fill="#673AB7">Observability Stack</text>
    
    <!-- OpenTelemetry -->
    <rect x="120" y="40" width="270" height="60" rx="5" ry="5" fill="#FFF" stroke="#009688" stroke-width="2"/>
    <text x="255" y="70" font-family="Arial" font-size="14" font-weight="bold" text-anchor="middle" fill="#009688">OpenTelemetry Collector</text>
    <text x="255" y="90" font-family="Arial" font-size="12" text-anchor="middle" fill="#666">Telemetry collection</text>
    
    <!-- Jaeger -->
    <rect x="410" y="40" width="270" height="60" rx="5" ry="5" fill="#FFF" stroke="#009688" stroke-width="2"/>
    <text x="545" y="70" font-family="Arial" font-size="14" font-weight="bold" text-anchor="middle" fill="#009688">Jaeger</text>
    <text x="545" y="90" font-family="Arial" font-size="12" text-anchor="middle" fill="#666">Distributed tracing</text>
    
    <!-- Prometheus -->
    <rect x="700" y="40" width="270" height="60" rx="5" ry="5" fill="#FFF" stroke="#009688" stroke-width="2"/>
    <text x="835" y="70" font-family="Arial" font-size="14" font-weight="bold" text-anchor="middle" fill="#009688">Prometheus</text>
    <text x="835" y="90" font-family="Arial" font-size="12" text-anchor="middle" fill="#666">Metrics collection</text>
  </g>
  
  <!-- Traffic Flow Lines -->
  <!-- Client to Gateway -->
  <line x1="600" y1="90" x2="600" y2="140" stroke="#333" stroke-width="2" marker-end="url(#arrowhead)"/>
  
  <!-- Gateway to Services -->
  <line x1="430" y1="200" x2="430" y2="220" stroke="#333" stroke-width="2" marker-end="url(#arrowhead)"/>
  <line x1="660" y1="200" x2="660" y2="220" stroke="#333" stroke-width="2" marker-end="url(#arrowhead)"/>
  
  <!-- OPA to Services -->
  <line x1="300" y1="260" x2="330" y2="260" stroke="#9C27B0" stroke-width="2" marker-end="url(#arrowhead)"/>
  
  <!-- Services to DB -->
  <line x1="430" y1="300" x2="430" y2="420" stroke="#2196F3" stroke-width="2" marker-end="url(#arrowhead)"/>
  <line x1="660" y1="300" x2="660" y2="420" stroke="#2196F3" stroke-width="2" marker-end="url(#arrowhead)"/>
  
  <!-- Transaction Service to Redis -->
  <line x1="760" y1="260" x2="790" y2="260" stroke="#DC3545" stroke-width="2" marker-end="url(#arrowhead)"/>
  
  <!-- Redis to Worker -->
  <line x1="890" y1="300" x2="890" y2="320" stroke="#28A745" stroke-width="2" marker-end="url(#arrowhead)"/>
  
  <!-- Worker to Services -->
  <path d="M 890,400 Q 890,440 800,440 Q 710,440 710,300" fill="none" stroke="#28A745" stroke-width="2" marker-end="url(#arrowhead)"/>
  
  <!-- Services to Observability -->
  <line x1="430" y1="300" x2="430" y2="520" stroke="#673AB7" stroke-width="2" stroke-dasharray="4,4"/>
  <line x1="660" y1="300" x2="660" y2="520" stroke="#673AB7" stroke-width="2" stroke-dasharray="4,4"/>
  
  <!-- Arrowhead marker -->
  <defs>
    <marker id="arrowhead" markerWidth="10" markerHeight="7" refX="9" refY="3.5" orient="auto">
      <polygon points="0 0, 10 3.5, 0 7" fill="#333"/>
    </marker>
  </defs>
  
  <!-- Legend -->
  <g transform="translate(1020,140)">
    <rect width="130" height="400" rx="5" ry="5" fill="#FFF" stroke="#333" stroke-width="1"/>
    <text x="65" y="30" font-family="Arial" font-size="14" font-weight="bold" text-anchor="middle" fill="#333">Legend</text>
    
    <g transform="translate(20,50)">
      <circle cx="0" cy="0" r="6" fill="#FF9800"/>
      <text x="15" y="5" font-family="Arial" font-size="12" fill="#333">API Gateway</text>
      
      <circle cx="0" cy="30" r="6" fill="#9C27B0"/>
      <text x="15" y="35" font-family="Arial" font-size="12" fill="#333">Security</text>
      
      <circle cx="0" cy="60" r="6" fill="#2196F3"/>
      <text x="15" y="65" font-family="Arial" font-size="12" fill="#333">Services</text>
      
      <circle cx="0" cy="90" r="6" fill="#4CAF50"/>
      <text x="15" y="95" font-family="Arial" font-size="12" fill="#333">Storage</text>
      
      <circle cx="0" cy="120" r="6" fill="#F44336"/>
      <text x="15" y="125" font-family="Arial" font-size="12" fill="#333">Scaling</text>
      
      <circle cx="0" cy="150" r="6" fill="#673AB7"/>
      <text x="15" y="155" font-family="Arial" font-size="12" fill="#333">Observability</text>
      
      <circle cx="0" cy="180" r="6" fill="#DC3545"/>
      <text x="15" y="185" font-family="Arial" font-size="12" fill="#333">Queue</text>
      
      <circle cx="0" cy="210" r="6" fill="#28A745"/>
      <text x="15" y="215" font-family="Arial" font-size="12" fill="#333">Workers</text>
      
      <line x1="0" y1="240" x2="30" y2="240" stroke="#333" stroke-width="2"/>
      <text x="45" y="245" font-family="Arial" font-size="12" fill="#333">Sync Flow</text>
      
      <line x1="0" y1="270" x2="30" y2="270" stroke="#333" stroke-width="2" stroke-dasharray="4,4"/>
      <text x="45" y="275" font-family="Arial" font-size="12" fill="#333">Async Flow</text>
    </g>
  </g>
</svg>